{"title":"The.Blitz.2012.DVDRip.XviD-EXViD","uid":8390383,"size":734024841,"categoryP":"video","categoryS":"movies","magnet":"?xt=urn:btih:fcef6c2e9d84ae05c95578005739d88cb6ed1b0a&amp;dn=The.Blitz.2012.DVDRip.XviD-EXViD&amp;tr=udp%3A%2F%2Ftracker.openbittorrent.com%3A80&amp;tr=udp%3A%2F%2Fopen.demonii.com%3A1337&amp;tr=udp%3A%2F%2Ftracker.coppersurfer.tk%3A6969&amp;tr=udp%3A%2F%2Fexodus.desync.com%3A6969","seeders":1,"leechers":0,"uploader":"R0thschild","files":4,"time":1366411090,"description":"--------------------------------------------\n\nEXViD aims to iNTERNAL those releases which have been lost in the archives\nEXViD aims to PRE non-internal releases which have poor sources and are likely skipped by others\n &lt;a href=&quot;\nhttp://www.imdb.com/title/tt2363219/&quot; rel=&quot;nofollow&quot; target=&quot;_NEW&quot;&gt;\nhttp://www.imdb.com/title/tt2363219/&lt;/a&gt;\nSubtitles: Dutch, English\nDate: 2013.04\nDirector: Ate de Jong\n\nGenre: Drama | History | War\n\nPlot:\nWhen war breaks out in the Netherlands, a passionate and thrilling love story explodes into\nlife between young boxer Vincent and the German Eva, who is betrothed to the middle-aged Dirk\nin order to save her family. But the day that the centre of Rotterdam is bombed, the young\nlovers lose sight of each other\n\nCast:\nJan Smit ... Vincent\nRoos van Erkel ... Eva\nMike Weerts ... Chris\nMonic Hendrickx ... Eva's mother\nGerard Cox ... Hotel manager\nKoos Postema ... Dominee\nJobst Schnibbe ... Vader Eva\nMichel Sluysmans ... Wachtmeester\nSteven Stavast ... Usher\nTeri Tordai ... Tante Anke\nPieter Van der Sman ... Dirk\nThomas van Montfort ... Duitse officier\nPaul van Soest ... Willem\nTom Pilath ... Feldwebel\nJelle Palmaerts ... Herman\n\nStats:\nFormat: AVI\nFormat/Info: Audio Video Interleave\nFile size: 700 MiB\nDuration: 1h 40mn\nOverall bit rate: 970 Kbps\nWriting application: Nandub v1.0rc2\nWriting library: Nandub build 1852/release\n\nVideo\nID: 0\nFormat: MPEG-4 Visual\nFormat profile: Advanced Simple@L5\nFormat settings, BVOP: 2\nFormat settings, QPel: No\nFormat settings, GMC: No warppoints\nFormat settings, Matrix: Default (H.263)\nCodec ID: XVID\nCodec ID/Hint: XviD\nDuration: 1h 40mn\nBit rate: 835 Kbps\nWidth: 592 pixels\nHeight: 320 pixels\nDisplay aspect ratio: 1.850\nFrame rate: 25.000 fps\nColor space: YUV\nChroma subsampling: 4:2:0\nBit depth: 8 bits\nScan type: Progressive\nCompression mode: Lossy\nBits/(Pixel*Frame): 0.176\nStream size: 602 MiB (86%)\nWriting library: XviD 64\n\nAudio\nID: 1\nFormat: MPEG Audio\nFormat version: Version 1\nFormat profile: Layer 3\nMode: Joint stereo\nMode extension: MS Stereo\nCodec ID: 55\nCodec ID/Hint: MP3\nDuration: 1h 40mn\nBit rate mode: Variable\nBit rate: 128 Kbps\nChannel(s): 2 channels\nSampling rate: 48.0 KHz\nCompression mode: Lossy\nStream size: 88.5 MiB (13%)\nAlignment: Aligned on interleaves\nInterleave, duration: 24 ms (0.60 video frame)\nInterleave, preload duration: 143 ms\nWriting library: LAME3.98r\nEncoding settings: -m j -V 4 -q 3 -lowpass 17 --abr 128\n\n--------------------------------------------\n\nMore at   &lt;a href=&quot;\nhttp://publichash.com/&quot; rel=&quot;nofollow&quot; target=&quot;_NEW&quot;&gt;\nhttp://publichash.com/&lt;/a&gt;\n\n--------------------------------------------\t","torrent":{"xt":"urn:btih:fcef6c2e9d84ae05c95578005739d88cb6ed1b0a","amp;dn":"The.Blitz.2012.DVDRip.XviD-EXViD","amp;tr":["udp%3A%2F%2Ftracker.openbittorrent.com%3A80","udp%3A%2F%2Fopen.demonii.com%3A1337","udp%3A%2F%2Ftracker.coppersurfer.tk%3A6969","udp%3A%2F%2Fexodus.desync.com%3A6969"],"infoHash":"fcef6c2e9d84ae05c95578005739d88cb6ed1b0a","infoHashBuffer":{"type":"Buffer","data":[252,239,108,46,157,132,174,5,201,85,120,0,87,57,216,140,182,237,27,10]},"announce":[],"urlList":[]}}